<svg xmlns="http://www.w3.org/2000/svg" width="130.166" height="25.909" viewBox="0 0 130.166 25.909"><g transform="translate(0 0)"><g transform="translate(0)"><path d="M76.983,86.61a8.018,8.018,0,0,0,.621-2.429c0-.432-.162-.54-.324-.54-.675,0-1.835,1.538-2.078,2.051l-.7-.432c.756-1.43,2.969-3.67,4.642-3.67.783,0,1.188.4,1.188,1.619,0,.945-.621,2.456-1.511,4.885l-.891,2.429a8.9,8.9,0,0,0-.513,1.862.475.475,0,0,0,.513.54c.945,0,2.213-1.835,2.564-2.483l.729.4c-.756,1.565-2.7,3.94-4.8,3.94-.945,0-1.4-.459-1.4-1.565a11.638,11.638,0,0,1,.891-3.536Zm2.024-10.445A1.516,1.516,0,0,1,80.492,74.6a1.537,1.537,0,0,1,1.538,1.538,1.509,1.509,0,0,1-1.538,1.484A1.457,1.457,0,0,1,79.007,76.165Z" transform="translate(-74.5 -74.6)"/><path d="M120.509,102.2c0-.513-.135-.7-.486-.7-.864,0-2.078,1.214-3.455,3.4-.972,1.565-1.43,2.7-3.4,8.286H110.9l1.592-4.831c1.349-4.075,1.727-5.425,1.727-6.1,0-.513-.216-.783-.594-.783-1.268,0-3.778,3.212-4.912,6.261l-2.024,5.452h-2.105l1.781-5.506c1.188-3.751,1.511-4.858,1.511-5.479,0-.432-.135-.675-.4-.675-.7,0-1.943,1.835-2.645,3.859l-.729-.351c1.134-3.266,2.483-4.831,4.264-4.831,1.026,0,1.4.54,1.4,1.862a5.83,5.83,0,0,1-.4,2.213l.081.081c1.457-2.726,3.077-4.156,4.723-4.156a1.91,1.91,0,0,1,2,2.132,8.5,8.5,0,0,1-.4,2.051l.054.081c1.808-3.05,3.158-4.237,4.831-4.237,1.241,0,1.862.648,1.862,2.078,0,.918-.324,2.024-1.187,4.588-1.107,3.293-1.187,3.643-1.187,4.21,0,.324.081.459.243.459.486,0,1.4-.891,2.942-2.807l.621.324c-1.08,2.132-3.59,4.345-4.939,4.345-.783,0-1.3-.756-1.3-1.889,0-.783.243-1.592,1.889-6.342C120.428,102.845,120.509,102.6,120.509,102.2Z" transform="translate(-96.111 -93.291)"/><path d="M185,120.532a2.159,2.159,0,1,1,2.132,2.132A2.166,2.166,0,0,1,185,120.532Z" transform="translate(-155.177 -106.579)"/><path d="M199.391,96.263a12.007,12.007,0,0,1,4.318-3.131l1.134-3.832h1.835l-.837,3.185a7.2,7.2,0,0,1,1.511-.162c2.7,0,4.291,1.565,4.291,4.183,0,4.21-4.345,7.665-9.1,8.286l-.891,3.347a3.958,3.958,0,0,0-.189,1.026c0,.783.567,1.08,2.24,1.107l-.135.972H196.8l.135-.972c1.349,0,1.862-.27,2.105-1.107l4.345-14.817a12.594,12.594,0,0,0-3.32,2.564Zm6.1-2.645-2.7,10.175c3.212-.621,6.342-3.67,6.342-7.125,0-1.916-.972-3.158-2.429-3.158A6.159,6.159,0,0,0,205.49,93.618Z" transform="translate(-163.793 -85.333)"/><path d="M264.855,110.17c-1.376,2.267-3.131,3.428-5.128,3.428-2.186,0-3.428-1.43-3.428-3.913,0-4.426,4.021-9.284,7.665-9.284,1.538,0,2.618.864,2.618,2.078,0,2.24-3.562,4.885-7.854,5.857a7.488,7.488,0,0,0-.108,1.322c0,1.7.648,2.618,1.835,2.618s2.51-.972,3.59-2.618ZM259,107.255c3.077-.837,5.344-2.807,5.344-4.723,0-.675-.3-1-.837-1C261.833,101.534,259.809,104.34,259,107.255Z" transform="translate(-207.234 -93.437)"/><path d="M304.98,90.793l.621.324c-1.161,2.4-2.348,3.616-3.563,3.616-.756,0-1.187-.459-1.781-1.862l-1.619-3.832-.54.243-1.511,5.236H294.4l4.642-17.192a4.465,4.465,0,0,0,.162-.891c0-.675-.486-.864-2.24-.864l.216-.729,4.777-.243-2.483,9.23.108.027a4.08,4.08,0,0,1,3.536-2.321c1.484,0,2.429.756,2.429,2,0,1.484-1.592,3.1-4.21,4.291l-.621.3,1.215,3.158c.324.918.675,1.322,1.107,1.322C303.5,92.6,304.143,92.008,304.98,90.793Zm-1.835-6.639a.882.882,0,0,0-.972-.972c-1.322,0-3.1,2.267-3.805,4.912C301.12,87.123,303.144,85.449,303.144,84.154Z" transform="translate(-235.052 -74.6)"/><path d="M341,120.532a2.159,2.159,0,1,1,2.132,2.132A2.166,2.166,0,0,1,341,120.532Z" transform="translate(-269.075 -106.579)"/><path d="M377.329,100.716h2l-1.376,3.67a30.117,30.117,0,0,0-1.781,6.855c0,.459.162.7.459.7.459,0,1.349-1.026,2.4-2.483l.621.513c-1.322,2.348-2.969,3.724-4.426,3.724-.756,0-1.16-.54-1.16-1.808,0-.3.027-.648.081-1.268l-.108-.027a5.524,5.524,0,0,1-4.345,3.1c-1.619,0-2.591-1.322-2.591-3.482,0-4.426,4.129-9.716,7.584-9.716a2.06,2.06,0,0,1,2.105,1.592Zm-7.908,9.365c0,1.161.54,1.889,1.349,1.889,2.24,0,5.074-5.8,5.074-8.906,0-.837-.378-1.349-.972-1.349C372.417,101.715,369.421,106.761,369.421,110.081Z" transform="translate(-288.131 -93.51)"/><path d="M418.4,120.532a2.159,2.159,0,1,1,2.132,2.132A2.166,2.166,0,0,1,418.4,120.532Z" transform="translate(-325.586 -106.579)"/><path d="M447.81,83.93l.081.054a4.772,4.772,0,0,1,3.967-2.321c1.943,0,3.05,1.322,3.05,3.4,0,4.561-4.291,9.77-8.178,9.77a2.922,2.922,0,0,1-3.131-2.969,17.907,17.907,0,0,1,1.026-4.48l2.915-9.365a8.326,8.326,0,0,0,.351-1.538c0-.567-.567-.837-1.835-.837l.189-.729,4.615-.216Zm4.723.945c0-1.107-.567-1.943-1.322-1.943-2.159,0-5.317,5.182-5.317,8.717,0,1.3.4,1.97,1.214,1.97C449.322,93.619,452.533,88.464,452.533,84.875Z" transform="translate(-343.985 -74.673)"/><path d="M492.505,78.02a11.385,11.385,0,0,0,.351-1.538c0-.567-.567-.837-1.835-.837l.189-.729,4.4-.216-4.291,15.761a8.07,8.07,0,0,0-.378,1.97.475.475,0,0,0,.513.54c1.026,0,2.429-2.024,2.807-2.726l.729.4c-.972,2.186-3.185,4.183-4.669,4.183-1.107,0-1.619-.459-1.619-1.565a15.738,15.738,0,0,1,.648-3.536Z" transform="translate(-376.913 -74.673)"/><path d="M527.255,110.17c-1.376,2.267-3.131,3.428-5.128,3.428-2.186,0-3.428-1.43-3.428-3.913,0-4.426,4.021-9.284,7.665-9.284,1.538,0,2.618.864,2.618,2.078,0,2.24-3.562,4.885-7.854,5.857a7.491,7.491,0,0,0-.108,1.322c0,1.7.648,2.618,1.835,2.618s2.51-.972,3.589-2.618Zm-5.884-2.915c3.077-.837,5.344-2.807,5.344-4.723,0-.675-.3-1-.837-1C524.206,101.534,522.182,104.34,521.372,107.255Z" transform="translate(-398.816 -93.437)"/></g></g></svg>